<svg width="114" height="43" fill="none" xmlns="http://www.w3.org/2000/svg"><g clip-path="url(#clip0_2217_178614)" fill="#fff"><path d="M.5 26.25V11.67h4.053v14.926h7.163v3.73H2.852l-1.595-1.945C.716 27.688.5 27.05.5 26.248m13.405 1.041 4.379-15.62h4.648c.865 0 1.405.4 1.648 1.254l4.027 14.366c.189.64.216 1.067.216 1.892v1.147h-3.594l-1.432-5.679-5.81 2.934-.703 2.744h-3.593V29.18c0-.825.025-1.252.214-1.89Zm9.703-3.36L21.473 15.4h-.433l-2.135 8.53h4.703Zm7.053 2.322V11.669h4.054v14.927h7.162v3.73h-8.865l-1.595-1.945c-.54-.693-.756-1.332-.756-2.133m17.567-14.577h-4.053v18.658h4.053V11.671Zm2.756 12.734v-6.812c0-3.972 2.19-6.13 6.216-6.13h1.775c3.973 0 6.216 2 6.216 5.544h-4.054v-.747c0-.692-.378-1.067-1.081-1.067H56.12c-.703 0-1.081.375-1.081 1.067v9.48c0 .692.378 1.065 1.08 1.065h3.937c.703 0 1.08-.373 1.08-1.066v-2.346h-2.81V19.66h4.514l1.595 1.947c.54.666.756 1.28.756 2.133v.667c0 3.97-2.19 6.129-6.216 6.129H57.2c-4.026 0-6.217-2.16-6.217-6.13Zm15.644 2.884 4.379-15.62h4.649c.865 0 1.405.4 1.648 1.254l4.027 14.366c.189.64.216 1.067.216 1.892v1.147h-3.594l-1.433-5.679-5.81 2.934-.703 2.744h-3.592V29.18c0-.825.026-1.252.216-1.89m9.7-3.36-2.135-8.53h-.433l-2.135 8.53h4.703Zm26.361-.58h-.76v.927h.759a.212.212 0 0 0 .165-.07.289.289 0 0 0 .063-.19v-.4a.286.286 0 0 0-.062-.19.203.203 0 0 0-.165-.075m-2.864-.005h-.557a.213.213 0 0 0-.172.073.285.285 0 0 0-.062.19l-.003 1.663c0 .075.02.138.062.188a.217.217 0 0 0 .172.08h.557a.204.204 0 0 0 .165-.078.279.279 0 0 0 .069-.188l.002-1.662a.275.275 0 0 0-.067-.19.21.21 0 0 0-.074-.057.21.21 0 0 0-.092-.02Zm-2.787-.004h-.792l-.002 1.004h.793a.214.214 0 0 0 .168-.075.283.283 0 0 0 .067-.19v-.473a.271.271 0 0 0-.067-.192.208.208 0 0 0-.167-.074Z"/><path d="M100.827 9c-6.72-.01-12.175 5.355-12.186 11.983-.01 6.626 5.43 12.006 12.148 12.017 6.72.01 12.175-5.355 12.186-11.983.01-6.626-5.43-12.006-12.148-12.017Zm-4.556 5.547 6.254.009-.961 1.496-6.252-.007.959-1.498Zm-1.284 10.82a.664.664 0 0 1-.202.488.676.676 0 0 1-.493.202h-.827a.679.679 0 0 1-.638-.418.65.65 0 0 1-.047-.263v-.321h.507l.074.298c.034.123.12.187.26.187h.559a.213.213 0 0 0 .17-.075.285.285 0 0 0 .063-.19v-.354c0-.173-.077-.262-.232-.262h-.7a.692.692 0 0 1-.698-.692V23.5a.688.688 0 0 1 .698-.684h.814a.687.687 0 0 1 .638.417.64.64 0 0 1 .047.262v.29h-.505l-.075-.264a.248.248 0 0 0-.256-.188h-.55a.209.209 0 0 0-.17.075.273.273 0 0 0-.065.192v.273c0 .171.076.256.234.256h.702c.189 0 .353.07.49.206a.66.66 0 0 1 .204.486v.547l-.002-.001Zm2.868-1.182a.695.695 0 0 1-.703.687h-.905v1.187h-.583l.005-3.24h1.486c.192 0 .36.068.497.204a.653.653 0 0 1 .203.48v.682Zm2.781 1.186a.65.65 0 0 1-.207.493.67.67 0 0 1-.493.2h-.787a.683.683 0 0 1-.496-.204.655.655 0 0 1-.204-.493l.003-1.863a.65.65 0 0 1 .205-.48.679.679 0 0 1 .498-.2h.786c.196 0 .358.067.494.2a.64.64 0 0 1 .206.484l-.002 1.863h-.003Zm.151-3.318-7.92-.009 1.93-3-1.413-.001.964-1.499 5.891.008-.966 1.499-2.64-.004-.978 1.5 4.253.006 3.896-6.048 4.827 7.559-1.826-.003-.96-1.5-2.858-.005.964-1.501h.936l-1.088-1.704-3.011 4.702h-.001Zm2.225 4.016-.533-1.269h-.551l-.003 1.267h-.582l.005-3.24 1.453.001c.195 0 .36.067.494.203a.652.652 0 0 1 .205.48v.566c0 .147-.043.28-.124.4a.764.764 0 0 1-.32.254l.573 1.34h-.617v-.002Zm3.115-2.713h-.843l-.005 2.716h-.582l.003-2.717h-.835v-.526l2.262.003v.524Zm2.63 2.03a.653.653 0 0 1-.204.489.675.675 0 0 1-.496.202h-.822a.686.686 0 0 1-.492-.196.641.641 0 0 1-.196-.485v-.323h.506l.075.3c.035.123.12.187.26.187h.557a.206.206 0 0 0 .171-.075.293.293 0 0 0 .063-.19v-.354c0-.173-.076-.262-.232-.262h-.7a.676.676 0 0 1-.494-.204.676.676 0 0 1-.204-.49v-.466a.66.66 0 0 1 .206-.483.67.67 0 0 1 .494-.2h.812a.685.685 0 0 1 .64.415c.034.083.05.173.048.262v.291h-.505l-.076-.265c-.04-.126-.127-.187-.256-.187h-.551a.213.213 0 0 0-.17.075.286.286 0 0 0-.066.192v.273c0 .17.08.256.234.256h.698a.666.666 0 0 1 .491.207.646.646 0 0 1 .209.485v.548-.001Zm.358-2.389h-.124v.259h-.063v-.26h-.123v-.055h.31v.056Zm.369.26v-.194c0-.008 0-.019.003-.034-.007.014-.008.023-.016.034l-.1.153h-.01l-.104-.157-.018-.031c0 .013.005.023.005.035v.193h-.053v-.313h.053l.125.189.126-.19h.049v.314l-.06.001Z"/></g><defs><clipPath id="clip0_2217_178614"><path fill="#fff" d="M.5.21h113v42H.5z"/></clipPath></defs></svg>
